<svg width="1200" height="675" viewBox="0 0 1200 675" fill="none" xmlns="http://www.w3.org/2000/svg">
  <rect width="1200" height="675" fill="#0AE448" />
  <path
    d="M149.425 554.454V554.502L145.478 571.631C145.265 572.601 144.296 573.313 143.179 573.313H138.41C138.238 573.314 138.071 573.369 137.934 573.472C137.796 573.574 137.695 573.718 137.646 573.882C133.247 588.805 127.291 599.064 119.426 605.222C112.736 610.465 104.489 612.907 93.4694 612.907C83.57 612.907 76.8945 609.723 71.2324 603.441C63.7528 595.128 60.6611 581.534 62.5337 565.15C65.9082 534.391 81.8626 503.353 112.582 503.353C121.927 503.268 129.263 506.15 134.367 511.908C139.765 517.992 142.504 527.161 142.519 539.157C142.505 539.683 142.287 540.183 141.91 540.551C141.534 540.918 141.029 541.124 140.503 541.125H117.994C117.6 541.113 117.225 540.95 116.947 540.67C116.669 540.39 116.509 540.014 116.5 539.62C116.316 531.325 113.856 527.282 108.965 527.282C100.336 527.282 95.2466 538.996 92.5478 545.491C88.7767 554.561 86.8563 564.409 87.2345 574.22C87.4145 578.788 88.1488 585.214 92.4853 587.872C96.3298 590.233 101.816 588.669 105.139 586.054C108.458 583.444 111.131 578.924 112.255 574.8C112.413 574.227 112.424 573.783 112.273 573.581C112.115 573.379 111.678 573.331 111.344 573.331H105.565C105.259 573.332 104.956 573.266 104.678 573.138C104.401 573.01 104.154 572.823 103.956 572.59C103.804 572.408 103.697 572.193 103.641 571.962C103.586 571.732 103.584 571.492 103.637 571.26L107.588 554.098C107.782 553.217 108.579 552.556 109.56 552.435V552.394H147.49C147.578 552.394 147.67 552.394 147.755 552.413C148.739 552.537 149.433 553.455 149.414 554.454H149.425Z"
    fill="#0E100F"
  />
  <path
    d="M214.726 534.762C214.71 535.285 214.491 535.781 214.115 536.145C213.74 536.508 213.237 536.712 212.714 536.712H191.983C190.624 536.712 189.489 535.61 189.489 534.27C189.489 528.219 187.396 525.274 183.115 525.274C178.834 525.274 176.072 527.906 175.991 532.5C175.9 537.622 178.797 542.275 187.044 550.272C197.902 560.458 202.253 569.483 202.044 581.41C201.702 600.691 188.59 613.157 168.637 613.157C158.447 613.157 150.663 610.428 145.485 605.053C140.231 599.596 137.822 591.584 138.325 581.241C138.342 580.718 138.562 580.222 138.939 579.859C139.315 579.496 139.818 579.293 140.341 579.295H161.785C162.084 579.3 162.378 579.371 162.646 579.504C162.914 579.637 163.149 579.827 163.334 580.062C163.497 580.255 163.615 580.481 163.682 580.725C163.749 580.968 163.764 581.223 163.724 581.472C163.485 585.203 164.135 587.99 165.604 589.532C166.544 590.531 167.855 591.037 169.489 591.037C173.451 591.037 175.771 588.236 175.859 583.363C175.933 579.148 174.6 575.45 167.337 567.978C157.955 558.813 149.543 549.343 149.804 534.453C149.958 525.821 153.387 517.923 159.464 512.216C165.89 506.187 174.677 503 184.877 503C195.096 503.073 202.84 505.985 207.897 511.662C212.685 517.045 214.991 524.815 214.734 534.758L214.726 534.762Z"
    fill="#0E100F"
  />
  <path
    d="M278.992 609.529L279.128 506.966C279.131 506.709 279.084 506.454 278.988 506.215C278.892 505.977 278.749 505.761 278.568 505.578C278.387 505.396 278.172 505.252 277.934 505.154C277.697 505.056 277.442 505.007 277.185 505.009H245.1C244.021 505.009 243.547 505.934 243.238 506.551L196.782 608.905V608.923L196.763 608.945C196.249 610.205 197.226 611.552 198.588 611.552H221.016C222.228 611.552 223.028 611.185 223.425 610.421L227.879 599.718C228.426 598.293 228.529 598.161 230.086 598.161H251.515C253.006 598.161 253.039 598.19 253.013 599.648L252.532 609.599C252.529 609.855 252.576 610.11 252.673 610.348C252.769 610.586 252.912 610.802 253.093 610.984C253.274 611.166 253.489 611.31 253.726 611.407C253.964 611.505 254.218 611.554 254.474 611.552H277.13C277.411 611.556 277.688 611.498 277.944 611.382C278.2 611.267 278.427 611.097 278.61 610.884C278.768 610.699 278.883 610.482 278.949 610.248C279.015 610.014 279.03 609.769 278.992 609.529ZM239.299 575.285C239.089 575.285 238.924 575.281 238.792 575.266C238.713 575.26 238.637 575.237 238.569 575.199C238.5 575.16 238.441 575.107 238.396 575.042C238.35 574.978 238.319 574.905 238.305 574.828C238.291 574.75 238.294 574.671 238.314 574.595C238.359 574.444 238.421 574.246 238.509 573.996L254.581 534.24C254.72 533.848 254.897 533.462 255.08 533.087C255.341 532.555 255.657 532.518 255.756 532.915C255.84 533.245 253.913 573.739 253.913 573.739C253.762 575.255 253.692 575.318 252.198 575.443L239.313 575.292H239.284L239.299 575.285Z"
    fill="#0E100F"
  />
  <path
    d="M324.703 505.009H307.669C306.77 505.009 305.76 505.486 305.521 506.558L281.819 609.477C281.767 609.71 281.769 609.952 281.825 610.183C281.881 610.415 281.989 610.631 282.142 610.814C282.34 611.047 282.585 611.234 282.863 611.362C283.14 611.49 283.441 611.556 283.747 611.556H305.036C306.178 611.556 306.964 610.994 307.177 610.021C307.177 610.021 309.758 598.388 309.762 598.352C309.946 597.445 309.63 596.74 308.815 596.314C308.429 596.115 308.047 595.917 307.669 595.715L303.979 593.799L300.307 591.882L298.886 591.144C298.771 591.086 298.675 590.996 298.609 590.886C298.542 590.775 298.509 590.648 298.511 590.52C298.516 590.33 298.595 590.149 298.731 590.016C298.866 589.883 299.048 589.808 299.238 589.807L310.908 589.859C314.396 589.877 317.888 589.631 321.321 588.999C345.482 584.538 361.528 565.187 361.991 538.856C362.384 516.384 349.841 504.998 324.721 504.998L324.703 505.009ZM318.905 566.256H318.45C317.429 566.256 317.245 566.145 317.212 566.109C317.198 566.083 323.943 536.466 323.947 536.425C324.119 535.57 324.112 535.078 323.583 534.788C322.907 534.413 313.059 529.221 313.059 529.221C312.945 529.161 312.849 529.07 312.783 528.958C312.718 528.847 312.685 528.719 312.689 528.589C312.693 528.401 312.772 528.221 312.907 528.09C313.042 527.958 313.223 527.884 313.412 527.884H328.984C333.831 528.031 336.534 532.368 336.405 539.77C336.181 552.593 330.086 565.804 318.905 566.259V566.256Z"
    fill="#0E100F"
  />
</svg>
